<svg width="444" height="180" fill="none" xmlns="http://www.w3.org/2000/svg"><path fill-rule="evenodd" clip-rule="evenodd" d="M75.276 0h29.448c24.777 0 34.804 2.785 44.581 8.014 9.778 5.23 17.452 12.903 22.681 22.68C177.215 40.473 180 50.5 180 75.277v29.448c0 24.777-2.785 34.804-8.014 44.581-5.229 9.778-12.903 17.452-22.681 22.681-9.777 5.229-19.804 8.014-44.581 8.014H75.276c-24.777 0-34.804-2.785-44.581-8.014-9.778-5.229-17.452-12.903-22.681-22.681C2.784 139.528 0 129.501 0 104.724V75.276C0 50.5 2.785 40.472 8.014 30.695c5.23-9.778 12.903-17.452 22.68-22.681C40.473 2.784 50.5 0 75.277 0Z" fill="#000"/><path d="M83.602 34.464a12 12 0 0 1 12 0l38.75 22.373a12 12 0 0 1 6 10.392v44.745c0 4.287-2.287 8.249-6 10.393l-38.75 22.372a11.998 11.998 0 0 1-12 0l-38.75-22.372a12.002 12.002 0 0 1-6-10.393V67.229a12 12 0 0 1 6-10.392l38.75-22.373Z" fill="#4ABEFF"/><path d="M130.594 65.458c1.926-1.082 3.487-.169 3.487 2.04v43.403c0 2.209-1.561 4.878-3.487 5.96l-37.107 20.854c-1.926 1.082-3.487.169-3.487-2.04V92.272c0-2.21 1.561-4.878 3.487-5.96l37.107-20.854ZM376.314 127l24-31.8-23.4-30.72h19.08l13.8 18.6 13.68-18.6h18.48l-23.04 30.48 24.48 32.04h-19.2l-14.76-19.92-14.76 19.92h-18.36Z" fill="#000"/><path d="M344.96 128.2c-6.24 0-11.88-1.44-16.92-4.32-5.04-2.88-9.04-6.76-12-11.64-2.96-4.88-4.44-10.36-4.44-16.44 0-6.08 1.44-11.56 4.32-16.44 2.96-4.96 6.96-8.88 12-11.76 5.12-2.88 10.8-4.32 17.04-4.32 6.24 0 11.88 1.44 16.92 4.32 5.12 2.88 9.12 6.8 12 11.76 2.96 4.88 4.44 10.36 4.44 16.44 0 6.08-1.48 11.56-4.44 16.44-2.88 4.88-6.84 8.76-11.88 11.64-5.04 2.88-10.72 4.32-17.04 4.32Zm0-14.28c3.28 0 6.2-.8 8.76-2.4 2.64-1.6 4.72-3.76 6.24-6.48 1.6-2.8 2.4-5.88 2.4-9.24 0-3.44-.8-6.52-2.4-9.24-1.52-2.72-3.6-4.88-6.24-6.48-2.56-1.68-5.48-2.52-8.76-2.52-3.2 0-6.12.84-8.76 2.52-2.64 1.6-4.72 3.76-6.24 6.48-1.52 2.72-2.28 5.8-2.28 9.24 0 3.36.76 6.44 2.28 9.24 1.52 2.72 3.6 4.88 6.24 6.48 2.64 1.6 5.56 2.4 8.76 2.4ZM238.777 127V40.24h16.44v29.28c4.96-3.92 10.8-5.88 17.52-5.88 5.92 0 11.28 1.44 16.08 4.32 4.8 2.88 8.6 6.76 11.4 11.64 2.88 4.8 4.32 10.2 4.32 16.2s-1.44 11.44-4.32 16.32c-2.88 4.8-6.76 8.64-11.64 11.52-4.88 2.8-10.32 4.2-16.32 4.2-3.12 0-6.16-.44-9.12-1.32-2.96-.88-5.68-2.16-8.16-3.84V127h-16.2Zm31.32-13.08c3.44 0 6.52-.8 9.24-2.4 2.8-1.6 5-3.76 6.6-6.48 1.6-2.72 2.4-5.8 2.4-9.24 0-3.44-.8-6.52-2.4-9.24-1.6-2.8-3.8-4.96-6.6-6.48-2.72-1.6-5.8-2.4-9.24-2.4-3.04 0-5.84.52-8.4 1.56-2.48.96-4.64 2.44-6.48 4.44v24.36c1.76 1.84 3.92 3.28 6.48 4.32 2.64 1.04 5.44 1.56 8.4 1.56ZM209.48 127V64.48h16.44V127h-16.44Z" fill="#000"/><circle cx="218" cy="48" r="9" fill="#4ABEFF"/></svg>